<svg width="393" height="108" viewBox="0 0 393 108" fill="none" xmlns="http://www.w3.org/2000/svg">
<path d="M21.04 106V19.34H0.0400003V3.8H59.96V19.34H38.96V106H21.04ZM65.28 39.5C70.2267 37.9133 75.5 36.56 81.1 35.44C86.7 34.32 92.3 33.4333 97.9 32.78C103.5 32.1267 108.633 31.8 113.3 31.8V46.78C109.287 46.78 105.18 47.0133 100.98 47.48C96.78 47.9467 92.72 48.6467 88.8 49.58C84.88 50.42 81.4267 51.4 78.44 52.52L82.78 44.4V106H65.28V39.5ZM140.74 106V48.04H117.64V33.2H158.1V106H140.74ZM147.32 23.54C143.587 23.54 140.553 22.5133 138.22 20.46C135.98 18.3133 134.86 15.42 134.86 11.78C134.86 8.04666 135.98 5.15333 138.22 3.1C140.553 1.04666 143.587 0.0199959 147.32 0.0199959C151.147 0.0199959 154.18 1.04666 156.42 3.1C158.66 5.15333 159.78 8.04666 159.78 11.78C159.78 15.42 158.66 18.3133 156.42 20.46C154.18 22.5133 151.147 23.54 147.32 23.54ZM204.44 107.4C181.48 107.4 170 95.7333 170 72.4V66.8C170 43.4667 181.527 31.8 204.58 31.8C210.927 31.8 216.76 32.5467 222.08 34.04V64.84H205V36.42L213.82 49.44C212.047 48.6933 210.133 48.1333 208.08 47.76C206.12 47.2933 204.113 47.06 202.06 47.06C196.74 47.06 192.96 48.6467 190.72 51.82C188.48 54.9933 187.36 60.4067 187.36 68.06V71.14C187.36 76.6467 187.92 80.94 189.04 84.02C190.16 87.1 192.073 89.2467 194.78 90.46C197.58 91.58 201.453 92.14 206.4 92.14C209.107 92.14 211.627 92 213.96 91.72C216.293 91.3467 219 90.74 222.08 89.9V105.16C219.467 105.813 216.667 106.327 213.68 106.7C210.693 107.167 207.613 107.4 204.44 107.4ZM226.7 106V3.8H243.78V63.02H244.34L267.02 33.2H286.9L260.44 68.2L287.18 106H267.3L244.34 73.8H243.78V106H226.7ZM315.18 107.4C303.7 107.4 295.16 104.553 289.56 98.86C283.96 93.0733 281.16 84.2533 281.16 72.4V66.8C281.16 54.76 283.447 45.94 288.02 40.34C292.687 34.6467 300.013 31.8 310 31.8C319.987 31.8 327.267 34.6467 331.84 40.34C336.507 45.94 338.84 54.76 338.84 66.8V77.16H289.56V63.44H325.26L322.04 67.92V67.5C322.04 59.8467 321.107 54.4333 319.24 51.26C317.467 48.0867 314.433 46.5 310.14 46.5C305.753 46.5 302.627 48.0867 300.76 51.26C298.987 54.4333 298.1 59.8467 298.1 67.5V71.7C298.1 77.3933 298.613 81.7333 299.64 84.72C300.667 87.7067 302.487 89.8067 305.1 91.02C307.807 92.14 311.68 92.7 316.72 92.7C319.427 92.7 322.133 92.56 324.84 92.28C327.64 91.9067 330.953 91.3 334.78 90.46V105.16C331.7 105.813 328.48 106.327 325.12 106.7C321.76 107.167 318.447 107.4 315.18 107.4ZM374.96 107.4C366.28 107.4 360.027 105.673 356.2 102.22C352.373 98.7667 350.46 92.98 350.46 84.86V48.04H334.22V33.2H350.46V9.39999H367.96V33.2H392.74V48.04H367.96V80.66C367.96 85.14 368.707 88.1733 370.2 89.76C371.693 91.3467 374.587 92.14 378.88 92.14C381.4 92.14 383.827 91.9533 386.16 91.58C388.493 91.1133 390.687 90.46 392.74 89.62V104.88C389.847 105.72 386.953 106.327 384.06 106.7C381.167 107.167 378.133 107.4 374.96 107.4Z" fill="url(#paint0_linear_3_56)"/>
<defs>
<linearGradient id="paint0_linear_3_56" x1="401" y1="-34" x2="276.222" y2="258.831" gradientUnits="userSpaceOnUse">
<stop stop-color="#95F690"/>
<stop offset="1" stop-color="#1AAD90"/>
</linearGradient>
</defs>
</svg>
