<svg width="127" height="36" viewBox="0 0 127 36" fill="none" xmlns="http://www.w3.org/2000/svg">
<path d="M7.37 35V7.145H0.62V2.15H19.88V7.145H13.13V35H7.37ZM21.59 13.625C23.18 13.115 24.875 12.68 26.675 12.32C28.475 11.96 30.275 11.675 32.075 11.465C33.875 11.255 35.525 11.15 37.025 11.15V15.965C35.735 15.965 34.415 16.04 33.065 16.19C31.715 16.34 30.41 16.565 29.15 16.865C27.89 17.135 26.78 17.45 25.82 17.81L27.215 15.2V35H21.59V13.625ZM45.845 35V16.37H38.42V11.6H51.425V35H45.845ZM47.96 8.495C46.76 8.495 45.785 8.165 45.035 7.505C44.315 6.815 43.955 5.885 43.955 4.715C43.955 3.515 44.315 2.585 45.035 1.925C45.785 1.265 46.76 0.934999 47.96 0.934999C49.19 0.934999 50.165 1.265 50.885 1.925C51.605 2.585 51.965 3.515 51.965 4.715C51.965 5.885 51.605 6.815 50.885 7.505C50.165 8.165 49.19 8.495 47.96 8.495ZM66.32 35.45C58.94 35.45 55.25 31.7 55.25 24.2V22.4C55.25 14.9 58.955 11.15 66.365 11.15C68.405 11.15 70.28 11.39 71.99 11.87V21.77H66.5V12.635L69.335 16.82C68.765 16.58 68.15 16.4 67.49 16.28C66.86 16.13 66.215 16.055 65.555 16.055C63.845 16.055 62.63 16.565 61.91 17.585C61.19 18.605 60.83 20.345 60.83 22.805V23.795C60.83 25.565 61.01 26.945 61.37 27.935C61.73 28.925 62.345 29.615 63.215 30.005C64.115 30.365 65.36 30.545 66.95 30.545C67.82 30.545 68.63 30.5 69.38 30.41C70.13 30.29 71 30.095 71.99 29.825V34.73C71.15 34.94 70.25 35.105 69.29 35.225C68.33 35.375 67.34 35.45 66.32 35.45ZM73.475 35V2.15H78.965V21.185H79.145L86.435 11.6H92.825L84.32 22.85L92.915 35H86.525L79.145 24.65H78.965V35H73.475ZM101.915 35.45C98.225 35.45 95.48 34.535 93.68 32.705C91.88 30.845 90.98 28.01 90.98 24.2V22.4C90.98 18.53 91.715 15.695 93.185 13.895C94.685 12.065 97.04 11.15 100.25 11.15C103.46 11.15 105.8 12.065 107.27 13.895C108.77 15.695 109.52 18.53 109.52 22.4V25.73H93.68V21.32H105.155L104.12 22.76V22.625C104.12 20.165 103.82 18.425 103.22 17.405C102.65 16.385 101.675 15.875 100.295 15.875C98.885 15.875 97.88 16.385 97.28 17.405C96.71 18.425 96.425 20.165 96.425 22.625V23.975C96.425 25.805 96.59 27.2 96.92 28.16C97.25 29.12 97.835 29.795 98.675 30.185C99.545 30.545 100.79 30.725 102.41 30.725C103.28 30.725 104.15 30.68 105.02 30.59C105.92 30.47 106.985 30.275 108.215 30.005V34.73C107.225 34.94 106.19 35.105 105.11 35.225C104.03 35.375 102.965 35.45 101.915 35.45ZM121.13 35.45C118.34 35.45 116.33 34.895 115.1 33.785C113.87 32.675 113.255 30.815 113.255 28.205V16.37H108.035V11.6H113.255V3.95H118.88V11.6H126.845V16.37H118.88V26.855C118.88 28.295 119.12 29.27 119.6 29.78C120.08 30.29 121.01 30.545 122.39 30.545C123.2 30.545 123.98 30.485 124.73 30.365C125.48 30.215 126.185 30.005 126.845 29.735V34.64C125.915 34.91 124.985 35.105 124.055 35.225C123.125 35.375 122.15 35.45 121.13 35.45Z" fill="#FEFEFE"/>
</svg>
